<svg width="126" height="63" viewBox="0 0 126 63" fill="none" xmlns="http://www.w3.org/2000/svg">
<path d="M69 31.5C69 48.897 54.7045 63 37.0701 63C19.4357 63 40.3451 49.7047 40.3451 32.3077C40.3451 14.9107 19.4357 0 37.0701 0C54.7045 0 69 14.103 69 31.5Z" fill="url(#paint0_linear_203_1967)"/>
<path d="M39 31.5C39 48.897 24.7045 63 7.07009 63C-10.5643 63 10.3451 49.7047 10.3451 32.3077C10.3451 14.9107 -10.5643 0 7.07009 0C24.7045 0 39 14.103 39 31.5Z" fill="url(#paint1_linear_203_1967)"/>
<path d="M125.944 30.9948C125.944 33.9602 125.374 36.4738 124.233 38.5355C123.093 40.5973 121.549 42.1633 119.601 43.2337C117.662 44.3041 115.486 44.8392 113.074 44.8392C110.652 44.8392 108.472 44.2997 106.533 43.2205C104.594 42.1414 103.054 40.5754 101.914 38.5224C100.782 36.4606 100.216 33.9514 100.216 30.9948C100.216 28.0294 100.782 25.5158 101.914 23.4541C103.054 21.3923 104.594 19.8263 106.533 18.7559C108.472 17.6856 110.652 17.1504 113.074 17.1504C115.486 17.1504 117.662 17.6856 119.601 18.7559C121.549 19.8263 123.093 21.3923 124.233 23.4541C125.374 25.5158 125.944 28.0294 125.944 30.9948ZM119.285 30.9948C119.285 29.2401 119.035 27.7574 118.535 26.5467C118.044 25.336 117.333 24.4191 116.403 23.7962C115.482 23.1733 114.372 22.8619 113.074 22.8619C111.784 22.8619 110.674 23.1733 109.744 23.7962C108.814 24.4191 108.099 25.336 107.599 26.5467C107.108 27.7574 106.862 29.2401 106.862 30.9948C106.862 32.7495 107.108 34.2322 107.599 35.4429C108.099 36.6537 108.814 37.5705 109.744 38.1934C110.674 38.8163 111.784 39.1277 113.074 39.1277C114.372 39.1277 115.482 38.8163 116.403 38.1934C117.333 37.5705 118.044 36.6537 118.535 35.4429C119.035 34.2322 119.285 32.7495 119.285 30.9948Z" fill="black"/>
<path d="M82.2859 44.4709H72.3237V17.519H82.2728C85.0188 17.519 87.3833 18.0586 89.3661 19.1377C91.3576 20.2081 92.893 21.7522 93.9721 23.7701C95.0512 25.7792 95.5908 28.1831 95.5908 30.9818C95.5908 33.7893 95.0512 36.202 93.9721 38.2199C92.9017 40.2378 91.3708 41.7863 89.3792 42.8654C87.3877 43.9357 85.0232 44.4709 82.2859 44.4709ZM78.838 38.9174H82.0359C83.5449 38.9174 84.8214 38.6629 85.8655 38.1541C86.9183 37.6364 87.7123 36.7986 88.2474 35.6405C88.7914 34.4736 89.0634 32.9207 89.0634 30.9818C89.0634 29.0429 88.7914 27.4988 88.2474 26.3495C87.7035 25.1914 86.9007 24.3579 85.8391 23.849C84.7863 23.3314 83.4879 23.0726 81.9438 23.0726H78.838V38.9174Z" fill="black"/>
<path d="M67.4086 30.9948C67.4086 33.9602 66.8384 36.4738 65.6978 38.5355C64.5573 40.5973 63.0132 42.1633 61.0655 43.2337C59.1266 44.3041 56.9508 44.8392 54.5381 44.8392C52.1166 44.8392 49.9364 44.2997 47.9975 43.2205C46.0586 42.1414 44.5189 40.5754 43.3783 38.5224C42.2465 36.4606 41.6807 33.9514 41.6807 30.9948C41.6807 28.0294 42.2465 25.5158 43.3783 23.4541C44.5189 21.3923 46.0586 19.8263 47.9975 18.7559C49.9364 17.6856 52.1166 17.1504 54.5381 17.1504C56.9508 17.1504 59.1266 17.6856 61.0655 18.7559C63.0132 19.8263 64.5573 21.3923 65.6978 23.4541C66.8384 25.5158 67.4086 28.0294 67.4086 30.9948ZM60.7496 30.9948C60.7496 29.2401 60.4996 27.7574 59.9995 26.5467C59.5082 25.336 58.7976 24.4191 57.8676 23.7962C56.9464 23.1733 55.8365 22.8619 54.5381 22.8619C53.2484 22.8619 52.1386 23.1733 51.2086 23.7962C50.2786 24.4191 49.5636 25.336 49.0635 26.5467C48.5722 27.7574 48.3265 29.2401 48.3265 30.9948C48.3265 32.7495 48.5722 34.2322 49.0635 35.4429C49.5636 36.6537 50.2786 37.5705 51.2086 38.1934C52.1386 38.8163 53.2484 39.1277 54.5381 39.1277C55.8365 39.1277 56.9464 38.8163 57.8676 38.1934C58.7976 37.5705 59.5082 36.6537 59.9995 35.4429C60.4996 34.2322 60.7496 32.7495 60.7496 30.9948Z" fill="white"/>
<path d="M16.1274 22.8094V17.519H38.9076V22.8094H30.7351V44.4709H24.313V22.8094H16.1274Z" fill="white"/>
<defs>
<linearGradient id="paint0_linear_203_1967" x1="49.5" y1="0" x2="49.5" y2="63" gradientUnits="userSpaceOnUse">
<stop stop-color="#42419B"/>
<stop offset="1" stop-color="#171635"/>
</linearGradient>
<linearGradient id="paint1_linear_203_1967" x1="19.5" y1="0" x2="19.5" y2="63" gradientUnits="userSpaceOnUse">
<stop stop-color="#6B69D9"/>
<stop offset="1" stop-color="#393873"/>
</linearGradient>
</defs>
</svg>
